# Blender 5.2.0 LTS
# www.blender.org
mtllib molly.mtl
o Plane
v 1.768396 4.011941 -1.599506
v 1.784405 1.158314 -1.604939
v 1.784405 1.428926 -2.636287
v 1.768396 3.775156 -1.235872
v 1.784405 1.479666 -1.080628
v 1.784405 3.678028 -0.023551
v 1.784405 1.919410 -0.615515
v 1.784405 3.534265 0.238604
v 1.784405 2.976487 -0.014456
v 1.784405 1.902497 -3.481949
v 1.784405 1.927866 -3.803300
v 1.768396 1.844587 -4.073178
v 1.797236 3.190230 -4.478961
v 1.768396 1.844587 -4.073178
v 1.768396 4.730754 -2.081534
v 1.768396 5.314261 -3.501887
v 1.768396 4.840690 -4.499768
v 1.768396 4.409403 -5.066362
v 1.768396 4.062681 -5.455366
v 1.768396 4.062681 -5.455366
v 1.784405 1.124488 -2.154619
v 1.784405 1.192141 -3.355100
v 1.784405 0.963812 -2.264555
v 1.784405 0.862332 -2.974911
v 1.784405 1.124488 -2.154619
v 1.806741 3.254930 -4.490443
v 1.768396 3.801069 -5.531973
v 1.768396 3.801069 -5.531973
v 1.797236 3.361916 -4.886392
v 1.768396 1.441785 -4.842496
v 1.768396 3.310982 -4.741251
v 1.879854 1.861442 -5.242185
v 1.768396 3.281618 -5.081865
v 1.768396 3.170038 -5.434224
v 1.768396 2.590414 -5.564832
v 1.768396 3.170038 -5.434224
v 1.784405 3.255376 0.188503
v 1.768396 2.600948 -4.065929
v 1.825437 4.011941 -1.599506
v 1.899320 1.158314 -1.604939
v 1.825437 4.011941 -2.520919
v 1.899320 1.428926 -2.636287
v 2.163301 3.711854 -1.215935
v 2.163301 1.479666 -1.080628
v 2.163301 3.678028 -0.023551
v 2.163301 1.919410 -0.615515
v 2.102923 3.534265 0.238604
v 2.173326 2.708865 -0.228906
v 1.825437 3.656763 -3.256645
v 2.163301 1.902497 -3.481949
v 1.825437 3.267759 -3.772499
v 2.163301 1.927866 -3.803300
v 1.806741 3.083243 -4.083011
v 1.806741 1.710811 -4.096167
v 1.806741 3.083243 -4.083011
v 1.806741 1.710811 -4.096167
v 1.825436 4.730754 -2.081534
v 1.825436 5.314261 -3.501887
v 1.825436 4.840690 -4.499768
v 1.825437 4.409403 -5.066362
v 1.825437 4.062681 -5.455366
v 1.825437 4.062681 -5.455366
v 1.899320 1.124488 -2.154619
v 1.899320 1.192141 -3.355100
v 1.899320 0.963812 -2.264555
v 1.899320 0.862332 -2.974911
v 1.899320 1.124488 -2.154619
v 1.825437 3.801069 -5.531973
v 1.912733 3.177206 -4.764239
v 1.912733 1.564585 -4.865484
v 1.912733 3.177206 -4.764239
v 1.912733 3.147842 -5.104853
v 1.912733 1.746047 -5.200225
v 1.912733 3.147842 -5.104853
v 1.912733 3.036262 -5.457212
v 1.912733 2.456638 -5.587821
v 1.912733 3.036262 -5.457212
v 2.553915 2.535095 -1.657202
v 2.504541 2.680161 -2.534454
v 2.553915 2.577379 -1.213230
v 2.427009 2.829610 -0.433630
v 2.138836 3.048410 0.034571
v 2.442456 2.747979 -3.359328
v 2.272502 2.566163 -3.842387
v 1.871781 2.600948 -4.065929
v 1.806741 2.467172 -4.088916
v 1.825437 3.801069 -5.531973
v 1.806741 3.254930 -4.490443
v 1.800414 4.011941 -1.599506
v 1.800414 3.775156 -1.235872
v 1.800413 1.844587 -4.073178
v 1.771573 3.190230 -4.478961
v 1.800413 1.844587 -4.073178
v 1.800414 4.730754 -2.081534
v 1.800414 5.314261 -3.501887
v 1.800414 4.840690 -4.499768
v 1.800414 4.409403 -5.066362
v 1.800414 4.062681 -5.455366
v 1.800414 4.062681 -5.455366
v 1.762068 3.254930 -4.490443
v 1.800414 3.801069 -5.531973
v 1.800414 3.801069 -5.531973
v 1.771573 3.361916 -4.886392
v 1.800413 1.441785 -4.842496
v 1.800413 3.310982 -4.741251
v 1.688955 1.861442 -5.242185
v 1.800413 3.281618 -5.081865
v 1.800413 3.170038 -5.434224
v 1.800413 2.590414 -5.564832
v 1.800413 3.170038 -5.434224
v 1.800413 2.600948 -4.065929
v 1.743373 4.011941 -1.599506
v 1.669489 1.158314 -1.604939
v 1.743373 4.011941 -2.520919
v 1.669489 1.428926 -2.636287
v 1.405508 3.711854 -1.215935
v 1.405508 1.479666 -1.080628
v 1.405508 3.678028 -0.023551
v 1.405508 1.919410 -0.615515
v 1.465886 3.534265 0.238604
v 1.395483 2.708865 -0.228906
v 1.743373 3.656763 -3.256645
v 1.405508 1.902497 -3.481949
v 1.743373 3.267759 -3.772499
v 1.405508 1.927866 -3.803300
v 1.762068 3.083243 -4.083011
v 1.762068 1.710811 -4.096167
v 1.762068 3.083243 -4.083011
v 1.762068 1.710811 -4.096167
v 1.743373 4.730754 -2.081534
v 1.743373 5.314261 -3.501887
v 1.743373 4.840690 -4.499768
v 1.743373 4.409403 -5.066362
v 1.743373 4.062681 -5.455366
v 1.743373 4.062681 -5.455366
v 1.669489 1.124488 -2.154619
v 1.669489 1.192141 -3.355100
v 1.669489 0.963812 -2.264555
v 1.669489 0.862332 -2.974911
v 1.669489 1.124488 -2.154619
v 1.743373 3.801069 -5.531973
v 1.656076 3.177206 -4.764239
v 1.656076 1.564585 -4.865484
v 1.656076 3.177206 -4.764239
v 1.656076 3.147842 -5.104853
v 1.656076 1.746047 -5.200225
v 1.656076 3.147842 -5.104853
v 1.656076 3.036262 -5.457212
v 1.656076 2.456638 -5.587821
v 1.656076 3.036262 -5.457212
v 1.014894 2.535095 -1.657202
v 1.064268 2.680161 -2.534454
v 1.014894 2.577379 -1.213230
v 1.141800 2.829610 -0.433630
v 1.429973 3.048410 0.034571
v 1.126353 2.747979 -3.359328
v 1.296307 2.566163 -3.842387
v 1.697028 2.600948 -4.065929
v 1.762068 2.467172 -4.088916
v 1.743373 3.801069 -5.531973
v 1.762068 3.254930 -4.490443
vn 0.8965 -0.4276 -0.1163
vn 0.8898 0.3864 -0.2429
vn 0.9509 0.3082 0.0271
vn 0.9027 0.0046 0.4303
vn 0.9218 -0.3873 -0.0141
vn 0.9578 -0.2419 -0.1553
vn 0.6955 0.3293 -0.6386
vn 0.3165 0.0091 -0.9485
vn 1.0000 -0.0000 -0.0000
vn 0.9997 -0.0217 -0.0102
vn 0.9998 -0.0189 0.0035
vn 0.8571 -0.4426 -0.2636
vn -0.0000 0.2810 -0.9597
vn -0.9947 0.0051 -0.1031
vn -1.0000 -0.0000 -0.0000
vn 0.7325 0.5298 -0.4274
vn 0.8558 0.5016 -0.1264
vn 0.6836 -0.3530 0.6388
vn 0.9155 -0.3048 0.2628
vn 0.9137 -0.3935 -0.1013
vn 0.8941 0.4478 0.0116
vn 0.5735 -0.0701 -0.8162
vn -0.0000 -0.9592 0.2828
vn 0.6412 0.7316 -0.2317
vn -0.0000 0.7957 -0.6057
vn -0.0000 -0.8725 -0.4886
vn -0.0000 0.9525 -0.3044
vn 0.5005 0.4139 0.7604
vn -0.0000 0.7465 -0.6654
vn -0.4926 0.0083 -0.8702
vn 0.6298 0.7447 0.2210
vn -0.0000 -0.9969 -0.0787
vn -0.0285 0.9408 -0.3377
vn 0.0915 0.8279 0.5534
vn 0.1212 -0.3079 0.9437
vn -0.0000 -0.8526 0.5226
vn -0.2223 -0.7913 0.5695
vn 0.0800 0.9953 0.0537
vn -0.0000 0.5570 0.8305
vn 0.6729 0.7370 -0.0635
vn 0.9800 -0.0843 -0.1802
vn -0.0000 -0.7266 0.6870
vn -0.0000 -0.9984 -0.0563
vn -0.0990 0.7774 0.6212
vn 0.0116 -0.6017 0.7986
vn -0.0483 -0.2196 0.9744
vn -0.0000 0.8768 0.4808
vn -0.0000 0.9498 -0.3129
vn -0.0000 0.9250 0.3800
vn 0.9855 -0.1565 -0.0659
vn 0.0814 -0.4704 0.8787
vn -0.0000 -0.9899 0.1414
vn -0.0000 0.9034 -0.4287
vn -0.9993 -0.0357 0.0066
vn -0.8965 -0.4276 -0.1163
vn -0.8898 0.3864 -0.2429
vn -0.9509 0.3082 0.0271
vn -0.9027 0.0046 0.4303
vn -0.9218 -0.3873 -0.0141
vn -0.9578 -0.2419 -0.1553
vn -0.6955 0.3293 -0.6386
vn -0.3165 0.0091 -0.9485
vn -0.9997 -0.0217 -0.0102
vn -0.9998 -0.0189 0.0035
vn -0.8571 -0.4426 -0.2636
vn 0.9947 0.0051 -0.1031
vn -0.7325 0.5298 -0.4274
vn -0.8558 0.5016 -0.1264
vn -0.6836 -0.3530 0.6388
vn -0.9155 -0.3048 0.2628
vn -0.9137 -0.3935 -0.1013
vn -0.8941 0.4478 0.0116
vn -0.5735 -0.0701 -0.8162
vn -0.6412 0.7316 -0.2317
vn -0.5005 0.4139 0.7604
vn 0.4926 0.0083 -0.8702
vn -0.6298 0.7447 0.2210
vn 0.0285 0.9408 -0.3377
vn -0.0915 0.8279 0.5534
vn -0.1212 -0.3079 0.9437
vn 0.2223 -0.7913 0.5695
vn -0.0800 0.9953 0.0537
vn -0.6729 0.7370 -0.0635
vn -0.9800 -0.0843 -0.1802
vn 0.0990 0.7774 0.6212
vn -0.0116 -0.6017 0.7986
vn 0.0483 -0.2196 0.9744
vn -0.9855 -0.1565 -0.0659
vn -0.0814 -0.4704 0.8787
vn 0.9993 -0.0357 0.0066
vt 0.411014 0.437075
vt 0.406051 0.240962
vt 0.503990 0.279509
vt 0.494320 0.457739
vt 0.405535 0.647442
vt 0.369110 0.604696
vt 0.368853 0.443098
vt 0.255879 0.599878
vt 0.294821 0.479027
vt 0.230984 0.579400
vt 0.250360 0.510193
vt 0.584296 0.346966
vt 0.572652 0.467399
vt 0.614812 0.350580
vt 0.618524 0.441501
vt 0.611887 0.541438
vt 0.639752 0.446456
vt 0.641374 0.515155
vt 0.642623 0.319662
vt 0.641935 0.427400
vt 0.562901 0.596849
vt 0.734755 0.704058
vt 0.680950 0.765491
vt 0.771695 0.654669
vt 0.493034 0.647442
vt 0.586189 0.832948
vt 0.680064 0.539611
vt 0.778970 0.617405
vt 0.451309 0.749832
vt 0.458250 0.236144
vt 0.572250 0.245781
vt 0.468689 0.213257
vt 0.536147 0.198802
vt 0.717665 0.554850
vt 0.706065 0.528539
vt 0.715679 0.298833
vt 0.738410 0.524357
vt 0.747467 0.324681
vt 0.771871 0.508463
vt 0.784274 0.425900
vt 0.312093 0.349375
vt 0.275380 0.461828
vt 0.356261 0.286737
vt 0.769688 0.527519
vt 0.736227 0.543412
vt 0.782091 0.444955
vt 0.751451 0.341118
vt 0.640440 0.338717
vt 0.703882 0.547595
vt 0.678974 0.530395
vt 0.713496 0.281341
vt 0.371004 0.613714
vt 0.235742 0.539674
vt 0.255015 0.499949
s 0
usemtl Material.001
f 78/1/1 40/2/1 42/3/1 79/4/1
f 78/1/2 39/5/2 43/6/2 80/7/2
f 80/7/3 43/6/3 45/8/3 81/9/3
f 81/9/4 45/8/4 47/10/4 82/11/4
f 79/4/5 42/3/5 50/12/5 83/13/5
f 83/13/6 50/12/6 52/14/6 84/15/6
f 51/16/7 84/15/7 85/17/7 53/18/7
f 53/18/8 85/17/8 54/19/8 56/19/8 86/20/8 55/18/8
f 49/21/9 51/16/9 60/22/9 59/23/9
f 51/16/10 53/18/10 61/24/10 60/22/10
f 41/25/9 49/21/9 59/23/9 58/26/9
f 62/24/11 55/18/11 88/27/11 87/28/11
f 39/5/9 41/25/9 58/26/9 57/29/9
f 42/3/9 40/2/9 63/30/9 64/31/9
f 63/30/9 40/2/9 65/32/9 66/33/9
f 29/34/12 27/28/12 87/28/12 88/27/12
f 20/24/13 62/24/13 87/28/13 27/28/13
f 54/19/14 85/17/14 53/18/14 69/35/14 70/36/14
f 71/35/9 69/35/9 72/37/9 74/37/9
f 70/36/15 69/35/15 72/37/15 73/38/15
f 74/37/9 72/37/9 75/39/9 77/39/9
f 73/38/15 72/37/15 75/39/15 76/40/15
f 49/21/16 83/13/16 84/15/16 51/16/16
f 41/25/17 79/4/17 83/13/17 49/21/17
f 46/41/18 81/9/18 82/11/18 48/42/18
f 44/43/19 80/7/19 81/9/19 46/41/19
f 40/2/20 78/1/20 80/7/20 44/43/20
f 39/5/21 78/1/21 79/4/21 41/25/21
f 85/17/22 84/15/22 52/14/22 54/19/22
f 2/2/23 23/32/23 65/32/23 40/2/23
f 36/44/24 33/45/24 74/37/24 77/39/24
f 18/22/25 17/23/25 59/23/25 60/22/25
f 3/3/26 10/12/26 50/12/26 42/3/26
f 24/33/27 21/30/27 63/30/27 66/33/27
f 35/46/28 32/47/28 73/38/28 76/40/28
f 19/24/29 18/22/29 60/22/29 61/24/29
f 21/30/9 25/30/9 67/30/9 63/30/9
f 61/24/11 53/18/11 26/27/11 68/28/11
f 14/48/30 38/17/30 86/20/30 56/19/30
f 31/49/31 13/50/31 55/18/31 71/35/31
f 10/12/32 11/14/32 52/14/32 50/12/32
f 30/51/33 12/48/33 54/19/33 70/36/33
f 1/5/34 4/52/34 43/6/34 39/5/34
f 8/10/35 37/53/35 82/11/35 47/10/35
f 5/43/36 2/2/36 40/2/36 44/43/36
f 11/14/37 12/48/37 54/19/37 52/14/37
f 62/24/9 61/24/9 68/28/9 87/28/9
f 4/52/38 6/8/38 45/8/38 43/6/38
f 15/29/39 1/5/39 39/5/39 57/29/39
f 33/45/40 31/49/40 71/35/40 74/37/40
f 38/17/41 13/50/41 55/18/41 86/20/41
f 7/41/42 5/43/42 44/43/42 46/41/42
f 21/30/43 22/31/43 64/31/43 63/30/43
f 32/47/44 30/51/44 70/36/44 73/38/44
f 12/48/9 14/48/9 56/19/9 54/19/9
f 37/53/45 9/54/45 48/42/45 82/11/45
f 34/44/46 35/46/46 76/40/46 75/39/46
f 19/24/13 61/24/13 68/28/13 28/28/13
f 6/8/47 8/10/47 47/10/47 45/8/47
f 22/31/48 3/3/48 42/3/48 64/31/48
f 34/44/9 36/44/9 77/39/9 75/39/9
f 16/26/49 15/29/49 57/29/49 58/26/49
f 55/18/50 13/50/50 29/34/50 88/27/50
f 9/54/51 7/41/51 46/41/51 48/42/51
f 23/32/52 24/33/52 66/33/52 65/32/52
f 17/23/53 16/26/53 58/26/53 59/23/53
f 53/18/9 55/18/9 88/27/9 26/27/9
f 13/50/54 20/24/54 27/28/54 29/34/54
f 151/1/55 152/4/55 115/3/55 113/2/55
f 151/1/56 153/7/56 116/6/56 112/5/56
f 153/7/57 154/9/57 118/8/57 116/6/57
f 154/9/58 155/11/58 120/10/58 118/8/58
f 152/4/59 156/13/59 123/12/59 115/3/59
f 156/13/60 157/15/60 125/14/60 123/12/60
f 124/16/61 126/18/61 158/17/61 157/15/61
f 126/18/62 128/18/62 159/20/62 129/19/62 127/19/62 158/17/62
f 122/21/15 132/23/15 133/22/15 124/16/15
f 124/16/63 133/22/63 134/24/63 126/18/63
f 114/25/15 131/26/15 132/23/15 122/21/15
f 135/24/64 160/28/64 161/27/64 128/18/64
f 112/5/15 130/29/15 131/26/15 114/25/15
f 115/3/15 137/31/15 136/30/15 113/2/15
f 136/30/15 139/33/15 138/32/15 113/2/15
f 103/34/65 161/27/65 160/28/65 101/28/65
f 99/24/13 101/28/13 160/28/13 135/24/13
f 127/19/66 143/36/66 142/35/66 126/18/66 158/17/66
f 144/35/9 147/37/9 145/37/9 142/35/9
f 143/36/9 146/38/9 145/37/9 142/35/9
f 147/37/9 150/39/9 148/39/9 145/37/9
f 146/38/9 149/40/9 148/39/9 145/37/9
f 122/21/67 124/16/67 157/15/67 156/13/67
f 114/25/68 122/21/68 156/13/68 152/4/68
f 119/41/69 121/42/69 155/11/69 154/9/69
f 117/43/70 119/41/70 154/9/70 153/7/70
f 113/2/71 117/43/71 153/7/71 151/1/71
f 112/5/72 114/25/72 152/4/72 151/1/72
f 158/17/73 127/19/73 125/14/73 157/15/73
f 2/2/23 113/2/23 138/32/23 23/32/23
f 110/44/74 150/39/74 147/37/74 107/45/74
f 97/22/25 133/22/25 132/23/25 96/23/25
f 3/3/26 115/3/26 123/12/26 10/12/26
f 24/33/27 139/33/27 136/30/27 21/30/27
f 109/46/75 149/40/75 146/38/75 106/47/75
f 98/24/29 134/24/29 133/22/29 97/22/29
f 21/30/9 136/30/9 140/30/9 25/30/9
f 134/24/64 141/28/64 100/27/64 126/18/64
f 93/48/76 129/19/76 159/20/76 111/17/76
f 105/49/77 144/35/77 128/18/77 92/50/77
f 10/12/32 123/12/32 125/14/32 11/14/32
f 104/51/78 143/36/78 127/19/78 91/48/78
f 89/5/79 112/5/79 116/6/79 90/52/79
f 8/10/80 120/10/80 155/11/80 37/53/80
f 5/43/36 117/43/36 113/2/36 2/2/36
f 11/14/81 125/14/81 127/19/81 91/48/81
f 135/24/9 160/28/9 141/28/9 134/24/9
f 90/52/82 116/6/82 118/8/82 6/8/82
f 94/29/39 130/29/39 112/5/39 89/5/39
f 107/45/83 147/37/83 144/35/83 105/49/83
f 111/17/84 159/20/84 128/18/84 92/50/84
f 7/41/42 119/41/42 117/43/42 5/43/42
f 21/30/43 136/30/43 137/31/43 22/31/43
f 106/47/85 146/38/85 143/36/85 104/51/85
f 91/48/9 127/19/9 129/19/9 93/48/9
f 37/53/86 155/11/86 121/42/86 9/54/86
f 108/44/87 148/39/87 149/40/87 109/46/87
f 98/24/13 102/28/13 141/28/13 134/24/13
f 6/8/47 118/8/47 120/10/47 8/10/47
f 22/31/48 137/31/48 115/3/48 3/3/48
f 108/44/9 148/39/9 150/39/9 110/44/9
f 95/26/49 131/26/49 130/29/49 94/29/49
f 128/18/88 161/27/88 103/34/88 92/50/88
f 9/54/89 121/42/89 119/41/89 7/41/89
f 23/32/52 138/32/52 139/33/52 24/33/52
f 96/23/53 132/23/53 131/26/53 95/26/53
f 126/18/9 100/27/9 161/27/9 128/18/9
f 92/50/90 103/34/90 101/28/90 99/24/90
